<svg version="1.2" xmlns="http://www.w3.org/2000/svg" viewBox="0 0 414 414" width="414" height="414">
	<title>Circle design-svg</title>
	<style>
		.s0 { fill: none;stroke: #f1e4ff;stroke-width: 2.6 } 
		.s1 { fill: #f1e4ff } 
	</style>
	<g id="Layer" style="opacity: .5">
		<path id="Layer" class="s0" d="m207 412.7c-113.7 0-205.7-92-205.7-205.7 0-113.7 92-205.7 205.7-205.7 113.7 0 205.7 92 205.7 205.7 0 113.7-92 205.7-205.7 205.7z"/>
		<path id="Layer" fill-rule="evenodd" class="s1" d="m207 351.8c-80.1 0-144.8-64.7-144.8-144.8 0-80.1 64.7-144.8 144.8-144.8 80.1 0 144.8 64.7 144.8 144.8 0 80.1-64.7 144.8-144.8 144.8zm85.2-144.8c0-47.1-38.1-85.2-85.2-85.2-47.1 0-85.2 38.1-85.2 85.2 0 47.1 38.1 85.2 85.2 85.2 47.1 0 85.2-38.1 85.2-85.2z"/>
	</g>
</svg>